<?xml version="1.0" standalone="no"?>
<!DOCTYPE svg PUBLIC "-//W3C//DTD SVG 20010904//EN"
 "http://www.w3.org/TR/2001/REC-SVG-20010904/DTD/svg10.dtd">
<svg version="1.0" xmlns="http://www.w3.org/2000/svg"
 width="225.000000pt" height="225.000000pt" viewBox="0 0 225.000000 225.000000"
 preserveAspectRatio="xMidYMid meet">
<metadata>
Created by potrace 1.14, written by Peter Selinger 2001-2017
</metadata>
<g transform="translate(0.000000,225.000000) scale(0.100000,-0.100000)"
 stroke="none">
<path d="M950 2205 c-461 -73 -830 -435 -911 -895 -16 -96 -16 -274 0 -370
103 -587 659 -985 1251 -896 469 71 839 432 921 896 16 96 16 274 0 370 -104
590 -665 988 -1261 895z m279 -195 c208 -27 389 -115 536 -264 340 -343 340
-899 0 -1242 -111 -112 -223 -181 -373 -228 -322 -101 -666 -15 -907 228 -164
165 -255 387 -255 621 0 449 334 826 784 884 89 12 122 12 215 1z"/>
<path d="M1063 1822 c-40 -31 -43 -60 -43 -393 0 -271 2 -325 16 -350 27 -53
58 -59 314 -59 291 0 320 9 320 105 0 91 -35 105 -265 105 l-175 0 0 259 c0
143 -4 271 -9 284 -24 63 -108 89 -158 49z"/>
</g>
</svg>
