<?xml version="1.0" standalone="no"?>
<!DOCTYPE svg PUBLIC "-//W3C//DTD SVG 20010904//EN"
 "http://www.w3.org/TR/2001/REC-SVG-20010904/DTD/svg10.dtd">
<svg version="1.0" xmlns="http://www.w3.org/2000/svg"
 width="512.000000pt" height="512.000000pt" viewBox="0 0 512.000000 512.000000"
 preserveAspectRatio="xMidYMid meet">
<metadata>
Created by potrace 1.14, written by Peter Selinger 2001-2017
</metadata>
<g transform="translate(0.000000,512.000000) scale(0.100000,-0.100000)"
fill="#000000" stroke="none">
<path d="M2479 4873 c-255 -273 -606 -695 -871 -1048 -550 -730 -852 -1307
-898 -1715 -12 -107 1 -303 31 -450 135 -672 665 -1245 1323 -1429 183 -52
283 -65 491 -65 268 -1 451 33 685 125 664 263 1119 883 1169 1592 9 127 1
271 -20 362 -116 514 -554 1232 -1273 2090 -256 305 -537 615 -557 615 -4 0
-40 -35 -80 -77z m1319 -2753 c54 -33 72 -74 72 -165 0 -172 -53 -382 -140
-555 -217 -431 -660 -716 -1122 -723 -116 -2 -137 5 -182 66 -28 38 -33 122
-8 167 33 60 59 72 179 82 218 18 395 81 549 196 236 175 385 445 401 727 6
119 27 176 75 205 45 27 131 27 176 0z"/>
</g>
</svg>
