<?xml version="1.0" encoding="iso-8859-1"?>
<!-- Generator: Adobe Illustrator 18.1.1, SVG Export Plug-In . SVG Version: 6.00 Build 0)  -->
<svg version="1.1" id="Capa_1" xmlns="http://www.w3.org/2000/svg" xmlns:xlink="http://www.w3.org/1999/xlink" x="0px" y="0px"
	 viewBox="0 0 510 510" style="enable-background:new 0 0 510 510;" xml:space="preserve">
<g>
	<g>
		<g>
			<path d="M480.125,45l-41-41c-3-3-5-4-9-4s-7,1-10,4l-240,240c-1,1-2,3-3,5l-26,67c-4,9,3,19,12,19
				c2,0,3,0,5-1l68-27c2-1,3-2,4-3l240-240C485.125,59,485.125,50,480.125,45z M223.125,283l-36,14l14-36l229-228l22,22L223.125,283
				z"/>
			<path d="M373.125,238c-12,0-22,10-22,22v207h-282V79h216c12,0,22-9,22-21s-10-22-22-22h-238
				c-12,0-21,10-21,22v430c0,12,9,22,21,22h326c12,0,21-10,21-22V260C394.125,248,385.125,238,373.125,238z"/>
		</g>
	</g>
</g>
<g>
</g>
<g>
</g>
<g>
</g>
<g>
</g>
<g>
</g>
<g>
</g>
<g>
</g>
<g>
</g>
<g>
</g>
<g>
</g>
<g>
</g>
<g>
</g>
<g>
</g>
<g>
</g>
<g>
</g>
</svg>
