<?xml version="1.0" encoding="iso-8859-1"?>
<!-- Generator: Adobe Illustrator 19.0.0, SVG Export Plug-In . SVG Version: 6.00 Build 0)  -->
<svg version="1.1" id="Layer_1" xmlns="http://www.w3.org/2000/svg" xmlns:xlink="http://www.w3.org/1999/xlink" x="0px" y="0px"
	 viewBox="0 0 512 512" style="enable-background:new 0 0 512 512;" xml:space="preserve">
<g>
	<g>
		<g>
			<path d="M405.333,42.667h-44.632c-4.418-12.389-16.147-21.333-30.035-21.333h-32.219C288.427,8.042,272.677,0,256,0
				s-32.427,8.042-42.448,21.333h-32.219c-13.888,0-25.617,8.944-30.035,21.333h-44.631C83.135,42.667,64,61.802,64,85.333v384
				C64,492.865,83.135,512,106.667,512h298.667C428.865,512,448,492.865,448,469.333v-384C448,61.802,428.865,42.667,405.333,42.667
				z M170.667,53.333c0-5.885,4.781-10.667,10.667-10.667h37.917c3.792,0,7.302-2.021,9.219-5.302
				c5.844-10.042,16.135-16.031,27.531-16.031s21.688,5.99,27.531,16.031c1.917,3.281,5.427,5.302,9.219,5.302h37.917
				c5.885,0,10.667,4.781,10.667,10.667V64c0,11.76-9.573,21.333-21.333,21.333H192c-11.76,0-21.333-9.573-21.333-21.333V53.333z
				 M426.667,469.333c0,11.76-9.573,21.333-21.333,21.333H106.667c-11.76,0-21.333-9.573-21.333-21.333v-384
				c0-11.76,9.573-21.333,21.333-21.333h42.667c0,23.531,19.135,42.667,42.667,42.667h128c23.531,0,42.667-19.135,42.667-42.667
				h42.667c11.76,0,21.333,9.573,21.333,21.333V469.333z"/>
			<path d="M352,426.667H160c-5.896,0-10.667,4.771-10.667,10.667c0,5.896,4.771,10.667,10.667,10.667h192
				c5.896,0,10.667-4.771,10.667-10.667C362.667,431.438,357.896,426.667,352,426.667z"/>
			<path d="M352,362.667H160c-5.896,0-10.667,4.771-10.667,10.667c0,5.896,4.771,10.667,10.667,10.667h192
				c5.896,0,10.667-4.771,10.667-10.667C362.667,367.438,357.896,362.667,352,362.667z"/>
			<path d="M352,256h-14.74l-18.385-36.771c-1.885-3.792-5.708-6.01-10.104-5.885c-4.229,0.229-7.938,2.938-9.427,6.906
				l-19.969,53.26l-23.698-94.76c-1.083-4.333-4.74-7.531-9.177-8.021c-4.49-0.448-8.708,1.844-10.708,5.833L196.073,256H160
				c-5.896,0-10.667,4.771-10.667,10.667c0,5.896,4.771,10.667,10.667,10.667h42.667c4.042,0,7.729-2.281,9.542-5.896l29.771-59.542
				l25.01,100.021c1.125,4.531,5.073,7.802,9.74,8.063c0.198,0.01,0.406,0.021,0.604,0.021c4.427,0,8.417-2.74,9.99-6.917
				l23.406-62.438l10.396,20.792c1.813,3.615,5.5,5.896,9.542,5.896H352c5.896,0,10.667-4.771,10.667-10.667
				C362.667,260.771,357.896,256,352,256z"/>
		</g>
	</g>
</g>
<g>
</g>
<g>
</g>
<g>
</g>
<g>
</g>
<g>
</g>
<g>
</g>
<g>
</g>
<g>
</g>
<g>
</g>
<g>
</g>
<g>
</g>
<g>
</g>
<g>
</g>
<g>
</g>
<g>
</g>
</svg>
