<?xml version="1.0" encoding="iso-8859-1"?>
<!-- Generator: Adobe Illustrator 16.0.0, SVG Export Plug-In . SVG Version: 6.00 Build 0)  -->
<!DOCTYPE svg PUBLIC "-//W3C//DTD SVG 1.1//EN" "http://www.w3.org/Graphics/SVG/1.1/DTD/svg11.dtd">
<svg version="1.1" id="Capa_1" xmlns="http://www.w3.org/2000/svg" xmlns:xlink="http://www.w3.org/1999/xlink" x="0px" y="0px"
	 width="465.199px" height="465.198px" viewBox="0 0 465.199 465.198" style="enable-background:new 0 0 465.199 465.198;"
	 xml:space="preserve">
<g>
	<path d="M96.085,465.196c4.571,0.029,43.939,0.383,43.939-45.316c0-37.17-40.21-97.854-40.21-97.854s-46.015,62.443-46.273,99.135
		C53.283,457.853,91.514,465.158,96.085,465.196z"/>
	<path d="M419.068,200.812v-66.938v-76.5h-47.812v47.812H313.88v-76.5h47.812c7.928,0,14.344-6.426,14.344-14.344
		S369.621,0,361.693,0H237.38c-7.928,0-14.344,6.426-14.344,14.344s6.416,14.344,14.344,14.344h47.812v76.5h-92.039
		c-88.176,0-115.907,58.79-118.259,89.878c-0.048,0.727-0.077,1.444-0.077,2.161v51.398H46.13v38.25h114.75v-38.25h-28.688v-49.983
		c0.717-5.326,7.22-36.079,60.961-36.079h178.102v38.25H419.068z"/>
</g>
<g>
</g>
<g>
</g>
<g>
</g>
<g>
</g>
<g>
</g>
<g>
</g>
<g>
</g>
<g>
</g>
<g>
</g>
<g>
</g>
<g>
</g>
<g>
</g>
<g>
</g>
<g>
</g>
<g>
</g>
</svg>
